<svg width="150" height="40" viewBox="0 0 150 40" fill="none" xmlns="http://www.w3.org/2000/svg">
<path d="M0 39.8977H39.8973V0H0V39.8977Z" fill="#00654F"/>
<path d="M32.7804 6.3649C30.9356 6.21985 29.4277 6.17714 27.2709 6.26786C22.2771 6.51666 17.6851 8.25177 13.8659 11.2316C10.3058 14.079 7.79614 17.5897 6.85757 21.5988H7.04887C8.73016 16.2314 13.6032 11.9919 20.6326 10.8764C22.85 10.5603 25.7918 10.6577 27.8749 11.0322L32.7804 6.3649Z" fill="#F15A2B"/>
<path d="M18.6381 20.1187L20.0459 15.9265L21.4069 20.1187H18.6381Z" fill="white"/>
<path d="M21.1049 20.7413L22.3848 19.2644H25.1824L26.3818 20.7413H21.1049Z" fill="white"/>
<path d="M15.0378 21.6168L15.807 20.1398H18.5475L19.4016 21.6168H15.0378Z" fill="white"/>
<path d="M20.4485 23.1427L22.0948 32.7322C23.2403 32.4586 24.3458 32.0751 25.3881 31.5929L20.4485 23.1427Z" fill="#BFD730"/>
<path d="M30.7757 27.5904L21.7757 23.1425L28.0149 30.0853C29.058 29.3515 29.9894 28.5119 30.7757 27.5904Z" fill="#BFD730"/>
<path d="M24.3328 23.1424L32.0583 25.7899C32.5508 24.948 32.9241 24.0606 33.1648 23.1424H24.3328Z" fill="#BFD730"/>
<path d="M18.9455 33.1824L19.5796 23.142L15.0832 32.9107C16.0388 33.1015 17.0536 33.2035 18.1156 33.2035C18.395 33.2035 18.6693 33.1963 18.9455 33.1824Z" fill="#BFD730"/>
<path d="M11.8787 31.8369L18.3221 23.1424L8.45736 29.1655C9.33831 30.2464 10.4983 31.1561 11.8787 31.8369Z" fill="#BFD730"/>
<path d="M6.61598 23.1423C6.50504 24.3462 6.64605 25.4948 7.00743 26.5599L16.4564 23.1423H6.61598Z" fill="#BFD730"/>
<path d="M144.376 17.352C142.958 17.352 142.196 16.8661 142.196 15.999C142.196 15.1309 142.874 14.6864 144.248 14.6029L147.359 14.4323V17.1198C145.983 17.3098 144.99 17.352 144.376 17.352ZM145.264 8.59596C143.74 8.59596 142.575 8.76161 140.904 9.06209L141.159 11.1128C142.386 10.9198 143.74 10.7253 145.075 10.7253C146.556 10.7253 147.359 11.2822 147.359 12.4829V12.615L144.418 12.7829C141.35 12.9091 139.888 13.9451 139.888 15.9361C139.888 18.115 141.265 19.321 143.783 19.321C145.075 19.321 146.068 19.321 149.623 18.7916V12.4214C149.623 9.8043 148.226 8.59596 145.264 8.59596ZM134.055 8.67594C132.595 8.67594 130.838 8.94976 129.802 9.33641C129.082 8.8694 128.13 8.67594 127.008 8.67594C125.061 8.67594 122.564 9.01534 121.782 9.20348V19.004H124.215V11.0527C124.998 10.9391 125.738 10.8992 126.479 10.8992C128.046 10.8992 128.806 11.6006 128.806 13.2247V19.004H131.261V12.5516C131.261 12.0442 131.198 11.6006 131.092 11.213C131.896 10.979 132.721 10.8992 133.526 10.8992C135.093 10.8992 135.854 11.6809 135.854 13.2687V19.004H138.287V12.5741C138.287 9.78004 136.594 8.67594 134.055 8.67594ZM114.34 17.352C112.922 17.352 112.162 16.8661 112.162 15.999C112.162 15.1309 112.838 14.6864 114.214 14.6029L117.324 14.4323V17.1198C115.948 17.3098 114.954 17.352 114.34 17.352ZM115.229 8.59596C113.706 8.59596 112.541 8.76161 110.87 9.06209L111.124 11.1128C112.351 10.9198 113.706 10.7253 115.039 10.7253C116.521 10.7253 117.324 11.2822 117.324 12.4829V12.615L114.383 12.7829C111.314 12.9091 109.854 13.9451 109.854 15.9361C109.854 18.115 111.23 19.321 113.747 19.321C115.039 19.321 116.033 19.321 119.589 18.7916V12.4214C119.589 9.8043 118.191 8.59596 115.229 8.59596ZM103.476 17.0565C102.671 17.0565 101.952 17.0772 100.578 16.8441V10.8992C101.403 10.799 102.248 10.7253 103.286 10.7253C105.444 10.7253 106.269 12.1282 106.269 14.0097C106.269 15.7242 105.169 17.0565 103.476 17.0565ZM103.624 8.67594C101.508 8.67594 99.3921 8.94976 98.1437 9.16355V22.9839H100.578V18.9407C101.932 19.1096 102.757 19.1096 103.815 19.1096C106.713 19.1096 108.66 16.9735 108.66 13.9451C108.597 10.7654 106.841 8.67594 103.624 8.67594ZM95.7288 8.99297H93.2738V17.035C92.3213 17.163 91.3689 17.2267 90.5022 17.2267C88.9786 17.2267 88.2171 16.4444 88.2171 14.857V8.99297H85.7621V15.4283C85.7621 18.2219 87.4756 19.321 89.9724 19.321C91.9194 19.321 94.6286 19.0251 95.7288 18.7916V8.99297ZM78.5629 17.163C76.6795 17.163 75.4091 15.8715 75.4091 13.923C75.4091 12.0199 76.6795 10.7654 78.5629 10.7654C80.4242 10.7654 81.6726 12.0199 81.6726 13.923C81.6726 15.8715 80.4242 17.163 78.5629 17.163ZM78.5629 8.55237C75.2197 8.55237 72.9556 10.7056 72.9556 13.923C72.9556 17.2061 75.2197 19.3845 78.5629 19.3845C81.8845 19.3845 84.149 17.2061 84.149 13.923C84.149 10.7056 81.8845 8.55237 78.5629 8.55237ZM72.4657 8.67594C70.5613 8.67594 68.043 8.96909 66.3083 9.2942V19.004H68.7417V11.213C69.9694 11.1128 71.1751 11.0729 72.4657 11.0729V8.67594ZM64.1902 10.7253H56.593V13.0811H61.7774V16.2109C60.4441 16.5909 58.815 16.8441 57.5451 16.8441C54.5405 16.8441 52.5301 14.8144 52.5301 11.7407C52.5301 8.76161 54.7524 6.75167 58.0951 6.75167C58.9421 6.75167 60.3808 6.9407 62.3485 7.30183L62.8556 4.93266C61.1006 4.48801 59.3017 4.29722 57.9052 4.29722C53.0802 4.29722 49.8641 7.2811 49.8641 11.7407C49.8641 16.2949 52.9324 19.321 57.5451 19.321C59.6403 19.321 61.8834 18.7503 64.1902 17.7552V10.7253Z" fill="#00654F"/>
<path d="M111.105 32.6112C112.153 32.6112 112.805 32.147 112.805 31.3764V31.3567C112.805 30.6053 112.173 30.1707 110.966 30.1707H108.784V32.6112H111.105ZM110.829 29.4791C111.767 29.4791 112.421 29.0543 112.421 28.2438V28.224C112.421 27.5429 111.876 27.0983 110.888 27.0983H108.784V29.4791H110.829ZM108.013 26.3964H110.957C111.748 26.3964 112.37 26.6236 112.766 27.0089C113.052 27.3057 113.21 27.6712 113.21 28.1159V28.1356C113.21 29.0346 112.657 29.4989 112.114 29.7364C112.934 29.983 113.596 30.4571 113.596 31.4056V31.4258C113.596 32.6112 112.597 33.3126 111.086 33.3126H108.013V26.3964Z" fill="#00654F"/>
<path d="M115.087 28.2043H115.847V33.3126H115.087V28.2043ZM115.037 26.2482H115.907V27.088H115.037V26.2482Z" fill="#00654F"/>
<path d="M117.319 32.8286L120.708 28.8469H117.438V28.2043H121.746V28.6884L118.347 32.6701H121.746V33.3126H117.319V32.8286Z" fill="#00654F"/>
<path d="M123.376 31.9587V28.876H122.664V28.2042H123.376V26.6627H124.136V28.2042H125.756V28.876H124.136V31.8599C124.136 32.4824 124.482 32.71 124.995 32.71C125.253 32.71 125.471 32.6601 125.737 32.5318V33.1841C125.471 33.3225 125.182 33.4016 124.819 33.4016C123.999 33.4016 123.376 32.9965 123.376 31.9587Z" fill="#00654F"/>
<path d="M131.328 30.7835V30.7638C131.328 29.6671 130.508 28.7683 129.431 28.7683C128.325 28.7683 127.564 29.6671 127.564 30.7441V30.7638C127.564 31.8604 128.374 32.75 129.451 32.75C130.558 32.75 131.328 31.8604 131.328 30.7835ZM126.783 30.7835V30.7638C126.783 29.3209 127.909 28.0959 129.451 28.0959C130.982 28.0959 132.109 29.3012 132.109 30.7441V30.7638C132.109 32.2066 130.972 33.4312 129.431 33.4312C127.899 33.4312 126.783 32.2264 126.783 30.7835Z" fill="#00654F"/>
<path d="M133.057 32.6606L133.442 32.1172C133.995 32.5321 134.607 32.7693 135.21 32.7693C135.823 32.7693 136.268 32.4532 136.268 31.9591V31.9394C136.268 31.4258 135.665 31.2281 134.993 31.0404C134.193 30.8132 133.303 30.5366 133.303 29.5977V29.5778C133.303 28.6986 134.035 28.1158 135.043 28.1158C135.665 28.1158 136.356 28.3327 136.881 28.6789L136.534 29.2518C136.059 28.9457 135.517 28.7579 135.023 28.7579C134.42 28.7579 134.035 29.074 134.035 29.4988V29.5186C134.035 30.0026 134.667 30.1904 135.349 30.3979C136.139 30.6349 136.989 30.9416 136.989 31.8604V31.8801C136.989 32.8483 136.188 33.4114 135.171 33.4114C134.439 33.4114 133.629 33.1249 133.057 32.6606Z" fill="#00654F"/>
<path d="M139.478 26.0012L140.268 26.3667L139.142 27.4337H138.55L139.478 26.0012ZM138.47 28.2043H139.231V33.3126H138.47V28.2043Z" fill="#00654F"/>
<path d="M141.266 31.9587V28.876H140.555V28.2042H141.266V26.6627H142.027V28.2042H143.647V28.876H142.027V31.8599C142.027 32.4824 142.373 32.71 142.886 32.71C143.144 32.71 143.361 32.6601 143.628 32.5318V33.1841C143.361 33.3225 143.074 33.4016 142.709 33.4016C141.889 33.4016 141.266 32.9965 141.266 31.9587Z" fill="#00654F"/>
<path d="M147.954 26.0012L148.745 26.3667L147.618 27.4337H147.026L147.954 26.0012ZM149.219 30.7831V30.7633C149.219 29.6668 148.399 28.7678 147.323 28.7678C146.216 28.7678 145.455 29.6668 145.455 30.7441V30.7633C145.455 31.8604 146.265 32.7495 147.341 32.7495C148.448 32.7495 149.219 31.8604 149.219 30.7831ZM144.674 30.7831V30.7633C144.674 29.3209 145.8 28.0955 147.341 28.0955C148.873 28.0955 150 29.3012 150 30.7441V30.7633C150 32.2061 148.863 33.4312 147.323 33.4312C145.791 33.4312 144.674 32.2259 144.674 30.7831Z" fill="#00654F"/>
</svg>
